Source: Avatar 2009 Extended Collectors Cut BluRay 720p DTS x264-3Li ( Awesome job. A BIG THANKS m8! )

Subs: Arabic, Brazilian, Bulgarian, Chinese, Croatian, Czech, Danish, Dutch, English (Foreign Only), English (Hearing Impaired), English, Estonian, Farsi-Persian, Finnish, French, German, Greek, Hebrew, Hungarian, Indonesian, Norwegian, Polish, Portuguese, Romanian, Russian (Foreign Only), Russian, Serbian (Cyrillic), Serbian, Slovenian, Spanish, Swedish, Turkish and Vietnamese.

Sample and Screens included.

General
Complete name                    : Avatar-720p MP4 AAC x264 Extended Collectors Cut BRRip 2009-CC.mp4
Format                           : MPEG-4
Format profile                   : Base Media
Codec ID                         : isom
File size                        : 3.47 GiB
Duration                         : 2h 58mn
Overall bit rate                 : 2 789 Kbps
Encoded date                     : UTC 2012-04-13 09:07:07

Video
ID                               : 1
Format                           : AVC
Format/Info                      : Advanced Video Codec
Format profile                   : High@L3.1
Format settings, CABAC           : Yes
Format settings, ReFrames        : 5 frames
Codec ID                         : avc1
Codec ID/Info                    : Advanced Video Coding
Duration                         : 2h 58mn
Bit rate mode                    : Variable
Bit rate                         : 2 400 Kbps
Nominal bit rate                 : 2 421 Kbps
Maximum bit rate                 : 12.9 Mbps
Width                            : 1 280 pixels
Height                           : 720 pixels
Display aspect ratio             : 16:9
Frame rate mode                  : Variable
Frame rate                       : 23.976 fps
Minimum frame rate               : 15.932 fps
Maximum frame rate               : 24.390 fps
Resolution                       : 24 bits
Colorimetry                      : 4:2:0
Scan type                        : Progressive
Bits/(Pixel*Frame)               : 0.109
Stream size                      : 2.99 GiB (86%)
Writing library                  : x264 core 112

Audio
ID                               : 2
Format                           : AAC
Format/Info                      : Advanced Audio Codec
Format version                   : Version 4
Format profile                   : LC
Format settings, SBR             : No
Codec ID                         : 40
Duration                         : 2h 58mn
Bit rate mode                    : Variable
Bit rate                         : 384 Kbps
Maximum bit rate                 : 613 Kbps
Channel(s)                       : 6 channels
Channel positions                : Front: L C R, Rear: L R, LFE
Sampling rate                    : 48.0 KHz
Resolution                       : 16 bits
Stream size                      : 489 MiB (14%)
Language                         : English